<?xml version="1.0" encoding="utf-8"?>
<!-- Generator: Adobe Illustrator 23.0.4, SVG Export Plug-In . SVG Version: 6.00 Build 0)  -->
<svg version="1.1" id="Livello_1" xmlns="http://www.w3.org/2000/svg" xmlns:xlink="http://www.w3.org/1999/xlink" x="0px" y="0px"
	 viewBox="0 0 100 100" style="enable-background:new 0 0 100 100;" xml:space="preserve">
<style type="text/css">
	.st0{fill:#E9ECEF;}
</style>
<path class="st0" d="M69.5,13.4c3.9,2.1,7.3,4.7,10.3,7.9c5.7,6.1,9.4,13.2,10.8,21.4c1.6,9.2,0.2,18.1-4.2,26.3
	c-5.2,9.8-13.2,16.5-23.8,20.1c-4.7,1.6-9.7,2.2-14.7,2c-9.8-0.6-18.4-4.1-25.6-10.8C16.2,74.7,12.1,68,10.1,60
	C8.9,55.4,8.6,50.8,9,46.1C9.5,40,11.3,34.3,14.3,29c3.8-6.6,9.1-11.7,15.7-15.4c4.1-2.3,8.5-3.8,13.2-4.6c3.6-0.6,7.2-0.7,10.9-0.3
	C59.5,9.3,64.6,10.9,69.5,13.4 M57.9,12c-4.9-1.1-9.8-1.2-14.7-0.3c-11.2,2.1-19.9,8-26,17.6C12,37.5,10.3,46.4,11.8,56
	c1.4,9.1,5.7,16.8,12.6,22.8c9.8,8.6,21.3,11.6,34,8.7c11.7-2.7,20.3-9.6,25.8-20.2c3.9-7.5,5-15.5,3.7-23.8
	c-1.3-7.9-4.7-14.8-10.4-20.5C72.2,17.3,65.6,13.7,57.9,12z"/>
<path class="st0" d="M49,59.7c0.1-1.8,0.2-3.5,0-5.3c-0.3-2.4-1.6-4.2-3.6-5.5c-1.4-0.9-2.8-1.6-4.2-2.3c-0.4-0.2-0.6-0.1-0.9,0.2
	c-0.7,0.7-1.7,0.9-2.5,0.4c-0.8-0.4-1.2-1.3-1.1-2.1c0.2-1,0.8-1.7,1.8-1.9c1.1-0.2,2.3,0.5,2.5,1.7c0.1,0.4,0.2,0.6,0.5,0.7
	c2.7,1,5.3,2.1,7.8,3.5c0.1,0,0.1,0,0.2,0c0.3-1.2,0.2-2.4,0.3-3.6c0.2-2.1,0.2-4.2,0.3-6.2c0-0.5-0.1-0.9-0.6-1.2
	c-1.3-0.9-1.3-2.9,0.2-3.6c0.7-0.3,0.8-0.8,0.8-1.4c0-0.6,0-1.2,0.2-1.9c0.4,0.9,0.2,1.7,0.4,2.5c0.1,0.4,0.2,0.6,0.5,0.7
	c1.5,0.7,1.7,2.8,0.3,3.7c-0.4,0.3-0.5,0.5-0.5,1c0.2,3.1,0.3,6.3,0.5,9.4c0,0.2,0.1,0.4,0.1,0.7c0.9-0.5,1.7-0.9,2.5-1.3
	c1.7-0.9,3.5-1.7,5.3-2.2c0.5-0.2,0.7-0.4,0.8-0.9c0.2-1.1,1.1-1.8,2.1-1.7c1.1,0.1,2,1,2,2.1c0.1,1-0.7,2-1.8,2.2
	c-0.7,0.1-1.3-0.1-1.8-0.6c-0.2-0.2-0.5-0.4-0.8-0.2c-1.8,0.9-3.6,1.7-5.2,3c-1.8,1.4-2.7,3.2-2.7,5.5c0,3.1-0.1,6.3,0.3,9.4
	c0.4,3.3,1.6,6.2,4.1,8.4c1,0.8,2.2,1.3,3.4,1.7c1.7,0.6,3.5,1.1,5.2,1.9c2,0.9,3.6,2.2,4.9,3.9c0.1,0.1,0.1,0.2,0.2,0.3
	c0,0.1,0,0.1,0,0.2c-0.5,0.2-1.1,0.2-1.5-0.2c-2.1-2.1-4.8-2.8-7.6-3.5c-1.1-0.2-2.2-0.5-3.4-0.8c1.1,2.4,3.2,3.5,5.6,4.4
	C63,81.1,62.5,81,62,80.9c-2.1-0.4-3.8-1.4-5-3.1c-1.4-1.9-3.2-3.3-5.1-4.5c-1-0.6-1.7-0.9-2.6,0c-0.4,0.4-0.9,0.6-1.4,0.9
	c-1.3,0.7-2.4,1.6-3.2,2.9c-1.1,1.6-2.5,2.9-4.4,3.6c-1,0.4-2.1,0.5-3,0.3c2.4-1,4.5-2,5.7-4.5c-2.7,0.8-5.5,1-7.9,2.2
	c-1,0.5-1.9,1-2.7,1.8c-0.5,0.6-1.1,0.6-1.8,0.5c-0.1-0.3,0.1-0.5,0.3-0.7c1.8-2.2,4.1-3.6,6.8-4.5c1.1-0.4,2.1-0.8,3.2-1.1
	c3.5-1,5.6-3.4,6.8-6.7C48.8,65.2,49,62.5,49,59.7 M49.9,35.9c-0.1,0.8,0,1.3,0.6,1.4c0.6,0.1,1.1,0,1.3-0.5s0.2-1-0.3-1.3
	C50.9,35.1,50.4,35.2,49.9,35.9 M39.6,44.5c-0.1-0.1-0.2-0.2-0.4-0.2c-0.5-0.2-0.9-0.1-1.2,0.3c-0.3,0.4-0.3,0.9,0,1.3
	c0.3,0.4,0.7,0.5,1.1,0.4c0.5-0.2,0.8-0.5,0.8-1C39.9,45,39.8,44.8,39.6,44.5 M63.7,45.5c0.1-0.5,0-0.9-0.5-1.2
	c-0.4-0.2-0.8-0.2-1.1,0c-0.4,0.3-0.4,0.6-0.4,1.1c0.1,0.4,0.3,0.7,0.7,0.8C63,46.3,63.5,46.1,63.7,45.5z"/>
<path class="st0" d="M59.4,34c-0.2,0.6-0.7,1-1.2,1.1c-0.2,0.1-0.5,0.1-0.5,0.4c-0.3,1.5-0.6,3.1-0.8,4.8c1-0.9,1.9-1.7,2.9-2.6
	c0.6-0.6,1.2-1.2,1.9-1.7c0.4-0.3,0.4-0.6,0.2-1c-0.5-0.9-0.2-2,0.7-2.4c0.9-0.5,2-0.2,2.5,0.7c0.3,0.6,0.3,1.3-0.1,1.9
	c-0.4,0.6-1,0.9-1.6,0.7c-0.5-0.1-0.8,0.1-1,0.5c-0.4,0.5-0.8,1.1-1.3,1.6c0.6,0.2,1.1,0.1,1.6,0.1c0.9,0,1.8,0,2.7,0.1
	c0.4,0,0.7-0.1,0.8-0.5c0.4-0.9,1.2-1.3,2.1-1.1s1.4,0.9,1.5,1.8c0,0.9-0.6,1.6-1.5,1.8c-0.8,0.2-1.7-0.2-2.1-1
	c-0.2-0.5-0.5-0.6-1-0.5c-1.6,0.2-3.2,0.4-4.9,0.6c-0.3,0-0.6,0.2-0.8,0.4c-1.9,1.9-3.8,3.8-4.8,6.4c0,0.1-0.1,0.2-0.3,0.4
	c-0.5-0.7-0.9-1.3-1.3-1.9c-0.1-0.2,0-0.3,0.1-0.4c0.2-0.3,0.4-0.6,0.7-0.8c1.1-0.9,1.6-2,1.9-3.3c0.3-1.5,0.9-2.9,1.4-4.3
	c0.1-0.3,0.2-0.6-0.2-0.8c-0.8-0.6-1-1.6-0.6-2.4c0.4-0.7,1.2-1,2-0.8c0.9,0.3,1.3,0.9,1.2,2.1C59.5,33.8,59.5,33.9,59.4,34
	 M66.7,38.4c0.2,0.9,1,1.3,1.7,0.8c0.4-0.3,0.5-0.7,0.3-1.2c-0.1-0.4-0.5-0.7-1-0.7C67.1,37.4,66.8,37.7,66.7,38.4z"/>
<path class="st0" d="M40.8,37.2c1.3,1,2.5,2,3.7,3c0.1-0.8-0.2-1.4-0.3-2.1c-0.2-0.7-0.4-1.4-0.6-2.1c-0.1-0.5-0.3-0.8-0.9-0.9
	c-0.9-0.2-1.5-0.9-1.5-1.8c0-0.9,0.5-1.6,1.4-1.8c0.8-0.2,1.7,0.1,2.1,0.7c0.5,0.7,0.4,1.8-0.2,2.4c-0.5,0.5-0.4,0.8-0.2,1.3
	c0.8,1.7,1.5,3.4,1.9,5.3c0.1,0.5,0.3,0.9,0.7,1.2c0.5,0.5,0.9,1,1.5,1.5c0.3,0.3,0.3,0.6,0,1c-0.4,0.5-0.7,1.1-1.1,1.4
	c-0.2,0-0.3-0.2-0.3-0.3c-1-2.5-2.8-4.3-4.7-6.1c-0.2-0.2-0.4-0.3-0.7-0.3c-1.8-0.1-3.7-0.2-5.5-0.3c-0.6,0-0.7,0.3-0.9,0.7
	c-0.3,0.8-1,1.3-1.8,1.2s-1.3-0.6-1.5-1.4c-0.2-0.8,0.2-1.6,0.9-1.9c0.8-0.4,1.7-0.2,2.2,0.6c0.3,0.6,0.7,0.6,1.3,0.5
	c1.4-0.2,2.8-0.3,4.3-0.5c-0.4-0.4-0.8-0.8-1.1-1.1c-0.7-0.6-1.4-1.2-2.1-1.9c-0.3-0.3-0.6-0.4-1.1-0.2c-1.1,0.5-2.2,0-2.5-1
	c-0.4-1.1,0.2-2.2,1.2-2.5c1.3-0.4,2.5,0.7,2.3,2.1c-0.1,0.6,0.1,0.9,0.5,1.1C38.8,35.6,39.8,36.4,40.8,37.2 M36.2,32.6
	c-0.4-0.3-0.9-0.4-1.3,0c-0.4,0.3-0.5,0.7-0.4,1.2c0.1,0.4,0.4,0.7,0.8,0.7c0.5,0.1,0.8-0.1,1.1-0.5C36.7,33.6,36.6,33.1,36.2,32.6
	 M43,32.2c-0.2,0.1-0.4,0.2-0.5,0.3c-0.4,0.5-0.5,1-0.2,1.5c0.3,0.4,0.8,0.5,1.2,0.3s0.7-0.6,0.6-1.1C44.1,32.6,43.8,32.3,43,32.2z"
	/>
<path class="st0" d="M48,27.8c1,0.6,1.4,1.5,1,2.5c-0.3,0.8-1.1,1.3-2,1.3c-1,0-1.8-0.7-1.9-1.7C44.9,28.4,46.3,27.1,48,27.8z"/>
<path class="st0" d="M53.6,31.5c-1-0.6-1.4-1.6-1.1-2.5c0.3-0.9,1.1-1.4,2-1.4c0.9,0.1,1.5,0.5,1.8,1.3s0.1,1.5-0.4,2.1
	C55.2,31.7,54.5,31.9,53.6,31.5z"/>
<path class="st0" d="M29.1,48.1c-0.1-0.9,0.1-1.6,0.8-2c0.8-0.4,1.5-0.3,2.1,0.3c0.2,0.2,0.5,0.2,0.7,0.1c0.9-0.2,1.7-0.5,2.6-0.7
	c0.3-0.1,0.6-0.3,0.8,0.2c0.1,0.4-0.3,0.4-0.6,0.5c-0.8,0.2-1.7,0.5-2.5,0.7c-0.3,0.1-0.5,0.2-0.5,0.5c-0.1,1-0.6,1.5-1.4,1.6
	C30.2,49.5,29.6,49.1,29.1,48.1z"/>
<path class="st0" d="M49.2,24.6c0.7-0.7,1.5-0.8,2.3-0.5s1.2,1,1.2,1.8s-0.4,1.4-1.1,1.7c-0.8,0.4-1.8,0.2-2.4-0.5
	C48.6,26.5,48.6,25.6,49.2,24.6z"/>
<path class="st0" d="M68.1,24.4c1,0.4,1.5,1.1,1.4,2.1c-0.1,0.7-0.7,1.3-1.5,1.4c-0.3,0-0.6,0-0.9-0.1c-0.5-0.3-0.8-0.2-1.2,0.2
	c-0.7,0.5-1.4,1-2.1,1.4c-0.2,0.1-0.4,0.3-0.6,0.2c-0.1-0.3,0.1-0.4,0.3-0.6c0.7-0.6,1.4-1.2,2.2-1.8c0.2-0.2,0.4-0.4,0.4-0.7
	C65.9,25,66.6,24.4,68.1,24.4z"/>
<path class="st0" d="M77.3,40.9c-0.7,1.2-1.6,1.4-2.7,0.7c-0.3-0.2-0.6-0.2-0.9,0c-0.8,0.4-1.6,0.8-2.3,1.1
	c-0.2,0.1-0.4,0.3-0.7,0.1c0-0.3,0.3-0.4,0.5-0.5c0.8-0.5,1.5-0.9,2.3-1.3c0.3-0.2,0.5-0.3,0.5-0.7c0.1-1.2,1-2,2-1.8
	C77,38.7,77.6,39.7,77.3,40.9z"/>
<path class="st0" d="M41.6,30.2c-0.2-0.3-0.3-0.6-0.4-0.9c-0.2-0.6-0.5-1.1-1.3-1.2c-0.8,0-1.3-0.8-1.4-1.6
	c-0.1-0.8,0.4-1.5,1.1-1.8c0.7-0.3,1.6-0.1,2,0.5c0.5,0.6,0.6,1.5,0.1,2.1c-0.4,0.5-0.3,1-0.1,1.5c0.2,0.7,0.6,1.3,0.7,2.1
	C41.8,30.9,41.8,30.5,41.6,30.2z"/>
<path class="st0" d="M25.5,35.4c1.3-0.7,2.5-0.3,2.8,1.1c0.1,0.3,0.2,0.5,0.5,0.6c0.7,0.3,1.3,0.6,2,0.9c0.2,0.1,0.5,0.1,0.5,0.5
	c-0.4,0.1-0.7-0.1-1-0.2c-0.6-0.2-1.1-0.4-1.7-0.6c-0.3-0.1-0.5-0.1-0.7,0.2c-0.8,0.8-1.9,0.8-2.6,0.1
	C24.6,37.4,24.7,36.3,25.5,35.4z"/>
<path class="st0" d="M32.8,31.4c-0.5,0-0.9,0.4-1.4,0.4c-1.1,0-1.8-0.6-1.9-1.6s0.7-1.8,1.7-1.9c1,0,1.9,0.7,1.8,1.7
	c-0.1,0.7,0.1,1.2,0.6,1.5c0.1,0,0.1,0.2,0.2,0.3C33.3,32,33.1,31.6,32.8,31.4z"/>
<path class="st0" d="M68.7,33.6c-0.8,0.3-1.4,0.2-2-0.3c-0.5-0.4-0.6-1-0.5-1.7c0.2-0.8,0.8-1.3,1.5-1.3c0.9,0,1.5,0.4,1.8,1.2
	C69.8,32.2,69.5,33,68.7,33.6z"/>
<path class="st0" d="M60.1,24.3c1.2,0.4,1.7,0.9,1.6,1.9c0,1-0.5,1.5-1.6,1.8c-0.3,0.1-0.5,0.3-0.6,0.6c-0.2,0.6-0.3,1.1-0.5,1.7
	c-0.1,0.2-0.1,0.5-0.4,0.5c-0.3-0.1-0.2-0.3-0.1-0.5c0.1-0.3,0.1-0.6,0.2-0.9c0.2-0.8,0.4-1.5-0.4-2.2c-0.5-0.5-0.5-1.3-0.1-2
	C58.6,24.5,59.2,24.2,60.1,24.3 M59.1,26.8c0.6,0.5,1.3,0.5,1.7-0.1c0.3-0.5,0.3-1-0.2-1.4c-0.4-0.3-0.8-0.5-1.3-0.1
	C58.8,25.6,58.6,26.1,59.1,26.8z"/>
<path class="st0" d="M68.2,48.1c0.1-0.6-0.1-0.9-0.6-1.1c-0.5-0.3-1.1-0.6-1.6-0.9c-0.2-0.1-0.5-0.2-0.4-0.6
	c0.7,0.1,1.3,0.4,1.9,0.7s1.1,0.5,1.8,0c0.8-0.6,1.9-0.1,2.4,0.7c0.5,0.9,0.2,2-0.6,2.5c-0.8,0.5-2,0.2-2.5-0.6
	C68.3,48.7,68.3,48.4,68.2,48.1 M69,47.6c0,0.9,0.7,1.6,1.4,1.2c0.5-0.2,0.7-0.6,0.7-1.1s-0.4-0.9-0.9-1C69.6,46.7,69.2,47,69,47.6z
	"/>
<path class="st0" d="M76.7,34.2c0.2,1.1,0,1.8-0.8,2.3s-1.5,0.4-2.3-0.2c-0.3-0.2-0.5-0.2-0.8-0.1c-0.4,0.1-0.8,0.4-1.3,0.3
	c0.2-0.5,0.7-0.6,1-0.8S73,35.3,73,35c0.1-1.1,0.6-1.7,1.6-1.9C75.5,32.8,76.2,33.3,76.7,34.2 M75.6,35.7c0.6-0.7,0.5-1.6-0.2-1.8
	c-0.4-0.1-0.9-0.1-1.2,0.3c-0.3,0.4-0.4,0.9,0,1.3C74.5,35.9,75,36,75.6,35.7z"/>
<path class="st0" d="M37.5,19.2c1.1-0.5,2-0.4,2.6,0.3c0.6,0.8,0.6,1.8-0.2,2.7c-0.2,0.3-0.3,0.5-0.2,0.8s0.2,0.6,0.1,1
	c-0.4,0-0.4-0.3-0.5-0.6c-0.1-0.4-0.3-0.7-0.8-0.7c-0.8-0.1-1.4-0.6-1.7-1.4C36.5,20.5,36.8,19.8,37.5,19.2 M39.6,20.9
	c-0.1-1-0.8-1.5-1.6-1.1c-0.4,0.3-0.7,0.7-0.6,1.2c0.1,0.5,0.4,0.8,0.9,0.8C39,21.9,39.4,21.7,39.6,20.9z"/>
<path class="st0" d="M59.3,19.3c0.8,1.1,0.8,1.9-0.1,2.8c-0.3,0.3-0.3,0.6-0.2,0.9c0.1,0.2,0.2,0.5,0,0.8c-0.4-0.1-0.4-0.5-0.5-0.7
	c-0.1-0.3-0.2-0.5-0.6-0.6c-1.1-0.1-1.6-0.6-1.8-1.5c-0.2-0.7,0.1-1.6,0.7-2C57.7,18.6,58.4,18.7,59.3,19.3 M57.9,21.8
	c1,0.1,1.5-1,1.2-1.5s-0.7-0.7-1.2-0.7c-0.5,0.1-0.8,0.4-0.9,0.9C56.9,21.2,57.1,21.6,57.9,21.8z"/>
<path class="st0" d="M27.1,45.7c0.4,0.5,1.2,0.3,1.5,0.9c-0.3,0.4-0.5,0.1-0.8,0c-0.4-0.1-0.8-0.3-1.3,0.1c-0.7,0.8-1.6,0.8-2.4,0.3
	c-0.7-0.5-1-1.4-0.7-2.2s1.1-1.3,1.9-1.2c1,0.1,1.6,0.8,1.7,1.9C27.1,45.5,27.1,45.5,27.1,45.7 M24.4,44.8c-0.4,0.8-0.1,1.6,0.6,1.7
	c0.5,0.1,1-0.1,1.2-0.6s0.1-1-0.3-1.3C25.3,44.2,24.9,44.2,24.4,44.8z"/>
</svg>
